<svg width="185" height="185" viewBox="0 0 185 185" fill="none" xmlns="http://www.w3.org/2000/svg">
<path d="M151.494 184.427H32.933C14.7458 184.427 0 169.681 0 151.494V32.933C0 14.7458 14.7458 0 32.933 0H151.494C169.681 0 184.427 14.7458 184.427 32.933V151.494C184.427 169.681 169.685 184.427 151.494 184.427Z" fill="#222221"/>
<path d="M92.2151 50.762C105.716 50.762 107.315 50.8126 112.646 51.0575C117.577 51.2831 120.252 52.1075 122.033 52.7997C124.394 53.7174 126.077 54.8101 127.847 56.5794C129.616 58.3488 130.713 60.0325 131.63 62.3929C132.323 64.1739 133.147 66.8532 133.373 71.7841C133.614 77.1154 133.668 78.7136 133.668 92.215C133.668 105.716 133.618 107.315 133.373 112.646C133.147 117.577 132.323 120.252 131.63 122.033C130.713 124.394 129.616 126.077 127.847 127.847C126.077 129.616 124.394 130.713 122.033 131.626C120.252 132.319 117.573 133.143 112.646 133.369C107.315 133.61 105.716 133.664 92.2151 133.664C78.7137 133.664 77.1154 133.614 71.7841 133.369C66.8533 133.143 64.1779 132.319 62.3969 131.626C60.0365 130.709 58.3527 129.612 56.5833 127.847C54.814 126.077 53.7174 124.394 52.7997 122.033C52.1075 120.252 51.2831 117.577 51.0576 112.646C50.8165 107.315 50.762 105.716 50.762 92.215C50.762 78.7136 50.8126 77.1154 51.0576 71.7841C51.2831 66.8532 52.1075 64.1778 52.7997 62.3929C53.7174 60.0325 54.814 58.3488 56.5833 56.5794C58.3527 54.8101 60.0365 53.7135 62.3969 52.7997C64.1779 52.1075 66.8571 51.2831 71.7841 51.0575C77.1154 50.8126 78.7137 50.762 92.2151 50.762ZM92.2151 41.6509C78.4842 41.6509 76.7616 41.7092 71.368 41.9542C65.9861 42.1992 62.3113 43.0547 59.0954 44.303C55.7706 45.594 52.9514 47.3244 50.1399 50.1359C47.3284 52.9474 45.6018 55.7667 44.3108 59.0915C43.0586 62.3074 42.207 65.9822 41.962 71.3641C41.717 76.7576 41.6587 78.4803 41.6587 92.2111C41.6587 105.942 41.717 107.665 41.962 113.058C42.207 118.44 43.0625 122.115 44.3108 125.331C45.6018 128.656 47.3323 131.475 50.1399 134.286C52.9514 137.098 55.7706 138.824 59.0954 140.119C62.3113 141.367 65.9861 142.223 71.368 142.468C76.7616 142.713 78.4842 142.771 92.2151 142.771C105.946 142.771 107.669 142.713 113.062 142.468C118.444 142.223 122.119 141.367 125.335 140.119C128.659 138.828 131.479 137.098 134.29 134.286C137.102 131.475 138.828 128.656 140.123 125.331C141.371 122.115 142.227 118.44 142.472 113.058C142.717 107.665 142.775 105.942 142.775 92.2111C142.775 78.4803 142.717 76.7576 142.472 71.3641C142.227 65.9822 141.371 62.3074 140.123 59.0915C138.832 55.7667 137.102 52.9474 134.29 50.1359C131.479 47.3244 128.659 45.5979 125.335 44.303C122.119 43.0547 118.444 42.1992 113.062 41.9542C107.669 41.7092 105.946 41.6509 92.2151 41.6509Z" fill="white"/>
<path d="M92.216 66.2476C77.8785 66.2476 66.2515 77.8707 66.2515 92.2121C66.2515 106.553 77.8746 118.177 92.216 118.177C106.557 118.177 118.18 106.553 118.18 92.2121C118.18 77.8707 106.553 66.2476 92.216 66.2476ZM92.216 109.065C82.9066 109.065 75.3626 101.518 75.3626 92.2121C75.3626 82.9027 82.9066 75.3587 92.216 75.3587C101.525 75.3587 109.069 82.9027 109.069 92.2121C109.069 101.522 101.522 109.065 92.216 109.065Z" fill="white"/>
<path d="M125.272 65.2241C125.272 68.5761 122.554 71.2942 119.205 71.2942C115.853 71.2942 113.139 68.5761 113.139 65.2241C113.139 61.872 115.853 59.1577 119.205 59.1577C122.554 59.1538 125.272 61.872 125.272 65.2241Z" fill="white"/>
</svg>
