<svg width="185" height="185" viewBox="0 0 185 185" fill="none" xmlns="http://www.w3.org/2000/svg">
<path d="M151.497 184.43H32.9335C14.746 184.43 0 169.684 0 151.496V32.9335C0 14.746 14.746 0 32.9335 0H151.497C169.684 0 184.43 14.746 184.43 32.9335V151.496C184.43 169.684 169.684 184.43 151.497 184.43Z" fill="#222221"/>
<path d="M69.4832 71.6562H50.3975V133.312H69.4832V71.6562Z" fill="white"/>
<path d="M59.8505 63.5843C66.0841 63.5843 71.1355 58.4863 71.1355 52.206C71.1355 45.9257 66.0841 40.8315 59.8505 40.8315C53.6169 40.8315 48.5654 45.9257 48.5654 52.206C48.5654 58.4863 53.613 63.5843 59.8505 63.5843Z" fill="white"/>
<path d="M99.9902 100.947C99.9902 92.2788 103.98 87.1146 111.617 87.1146C118.637 87.1146 122.008 92.0727 122.008 100.947C122.008 109.829 122.008 133.313 122.008 133.313H141.004C141.004 133.313 141.004 110.789 141.004 94.2737C141.004 77.7584 131.644 69.7749 118.57 69.7749C105.493 69.7749 99.9902 79.9633 99.9902 79.9633V71.6571H81.6821V133.313H99.9902C99.9902 133.313 99.9902 110.447 99.9902 100.947Z" fill="white"/>
</svg>
