<svg width="49" height="49" viewBox="0 0 49 49" fill="none" xmlns="http://www.w3.org/2000/svg">
<path d="M39.8071 48.0432H9.31812C4.64112 48.0432 0.849121 44.2512 0.849121 39.5742V9.08522C0.849121 4.40822 4.64112 0.616211 9.31812 0.616211H39.8071C44.4841 0.616211 48.2761 4.40822 48.2761 9.08522V39.5742C48.2761 44.2512 44.4841 48.0432 39.8071 48.0432Z" fill="#222221"/>
<path fill-rule="evenodd" clip-rule="evenodd" d="M37.5632 23.6713C37.3902 16.8193 31.7462 11.3193 24.7982 11.3193C17.9342 11.3193 12.3382 16.6943 12.0402 23.4383C12.0342 23.6233 12.0282 23.8093 12.0282 23.9943C12.0282 26.3923 12.6972 28.6283 13.8572 30.5413L11.5552 37.3393L18.6282 35.0913C20.4582 36.0953 22.5622 36.6703 24.7982 36.6703C31.8532 36.6703 37.5692 30.9963 37.5692 23.9953C37.5692 23.8863 37.5692 23.7793 37.5632 23.6713ZM24.7982 34.6483C22.6162 34.6483 20.5892 34.0023 18.8912 32.8843L14.7662 34.1993L16.1052 30.2413C14.8202 28.4833 14.0602 26.3253 14.0602 23.9933C14.0602 23.6463 14.0782 23.3003 14.1142 22.9593C14.6402 17.5663 19.2322 13.3393 24.7982 13.3393C30.4362 13.3393 35.0702 17.6743 35.5002 23.1623C35.5242 23.4373 35.5362 23.7123 35.5362 23.9933C35.5362 29.8713 30.7172 34.6483 24.7982 34.6483Z" fill="white"/>
<path fill-rule="evenodd" clip-rule="evenodd" d="M30.6524 26.5535C30.3354 26.3985 28.7984 25.6445 28.5114 25.5435C28.2244 25.4355 28.0154 25.3885 27.8054 25.6995C27.5964 26.0105 26.9924 26.7095 26.8124 26.9135C26.6274 27.1225 26.4474 27.1465 26.1314 26.9915C25.8204 26.8355 24.8104 26.5135 23.6144 25.4485C22.6874 24.6295 22.0544 23.6135 21.8744 23.3025C21.6954 22.9915 21.8564 22.8245 22.0124 22.6685C22.1554 22.5255 22.3234 22.3035 22.4844 22.1245C22.5264 22.0705 22.5624 22.0225 22.5984 21.9745C22.6704 21.8605 22.7244 21.7535 22.7954 21.6035C22.9034 21.3945 22.8494 21.2145 22.7714 21.0595C22.6934 20.9045 22.0654 19.3735 21.8024 18.7515C21.5454 18.1295 21.2824 18.2375 21.0974 18.2375C20.9174 18.2375 20.7084 18.2075 20.4994 18.2075C20.2904 18.2075 19.9494 18.2855 19.6624 18.5955C19.3754 18.9065 18.5684 19.6595 18.5684 21.1905C18.5684 21.5495 18.6344 21.9075 18.7294 22.2485C19.0464 23.3425 19.7274 24.2455 19.8474 24.4005C20.0024 24.6035 22.0114 27.8445 25.1924 29.0935C28.3794 30.3315 28.3794 29.9185 28.9534 29.8645C29.5274 29.8165 30.8074 29.1175 31.0634 28.3875C31.3264 27.6645 31.3264 27.0425 31.2484 26.9105C31.1724 26.7865 30.9624 26.7085 30.6524 26.5535Z" fill="white"/>
</svg>
